#!OML:ASF E:/inclinewalkrobotboard/Project1/Captureday1/Session1/subject1.ASF
:FULLY-SPECIFIED
:DEGREES
176
root 0 0 0 -1.7231602277838147 -2.8282640074943286 -3.4516363433211956
lowerback 10.03744171389335 0.9725780228214133 1.3333323102955106
upperback 0.06378156695040554 1.5119641781560147 1.2338176325106913
thorax -5.514455590403711 0.7137546661148738 0.31185273072460085
lowerneck -14.085112965342006 -2.923009950227755 -1.0715409164925191
upperneck 16.546608629304473 -3.9541057160636197 1.3706177239214903
head 7.667343564865929 -1.8597483339078515 0.21800729370072475
rclavicle -1.8578152480545921E-16 -8.927443212772724E-17
rhumerus -19.765030468266595 -7.42271844787599 -67.52129593111096
rradius 60.18812980317919
rwrist -7.970496866824599
rhand -13.407047120881478 -8.554696975757206
rfingers 7.125019999999866
rthumb 12.725757377515915 -37.801008574342276
lclavicle -8.125923912670598E-16 -3.852427529304965E-16
lhumerus -39.66152843636551 0.253758460410757 83.28734110105512
lradius 38.3254170623274
lwrist 2.680485469982531
lhand -19.38810351767878 0.7137304190561427
lfingers 7.125019999999878
lthumb 6.82997286925161 30.22084084704541
rfemur -9.093776860930177 2.026258095904757 14.13695211414296
rtibia 27.748242422874256
rfoot -1.4027904900721477 -3.2780448895943888
rtoes 3.3525812689277608
lfemur 0.5968828798331955 -4.244236295303771 -20.067779947918662
ltibia 18.966757098365072
lfoot -18.54153004486968 4.706382808850339
ltoes -23.753383451651995
177
root 0 0 0 -1.9155980487838278 -1.180357732102067 -0.7966589051035613
lowerback 10.040788644586858 -0.11196845823828738 -1.4861443029794152
upperback 0.16436923424964872 -0.2562650897268659 1.1887732380614902
thorax -5.431139221147477 -0.09466330806703371 2.106158137864984
lowerneck -14.168892576002987 -2.643025816685459 -1.3009698645770706
upperneck 16.752666993452838 -3.463406554094704 1.1865322220515986
head 7.724326479864283 -1.6634511733159851 0.24762539588097515
rclavicle -1.9944970666024777E-16 -9.72214486765482E-17
rhumerus -19.924022478870715 -7.607716924537906 -67.69424752490787
rradius 59.636729833477006
rwrist -7.770885486835154
rhand -13.483036519507387 -8.024735352238295
rfingers 7.125019999999869
rthumb 12.651499202792733 -37.28110766087411
lclavicle -7.800588134518681E-16 -3.7049355978194413E-16
lhumerus -39.431255783766375 0.2259116696980361 83.26850174515923
lradius 38.04883418353033
lwrist 2.781182771740129
lhand -19.615570402716504 1.4052371078000867
lfingers 7.125019999999881
lthumb 6.61558642984113 30.920200517208542
rfemur -9.632432078496796 1.8583740870508718 13.840540043080548
rtibia 28.50551718458714
rfoot -0.8845911106705104 -3.282276021260595
rtoes 3.558103230419592
lfemur 1.1568500740039562 -4.250928948884391 -20.517692328889126
ltibia 18.72237112271611
lfoot -18.452420934537987 4.458064834664919
ltoes -22.88608639741598
178
root 0 0 0 -2.107606375654864 -0.4329613323775303 0.5276733107042006
lowerback 10.093058564218463 -0.6570551248996492 -2.7849702820473348
upperback 0.24991221384077517 -1.1335645712297087 1.22024952800491
thorax -5.362396529923092 -0.4950188438258277 2.9969948440719207
lowerneck -14.543033345710754 -2.535222121041622 -1.519861956907022
upperneck 17.16845371365159 -3.2357945549319362 1.0242227436910778
head 7.923361930912192 -1.5777838143639453 0.2453612097911663
rclavicle -2.0336094538681177E-16 -1.0563902642267061E-16
rhumerus -20.01472530164907 -7.70192658892918 -67.7798305321237
rradius 59.363948432551524
rwrist -7.664208289888243
rhand -13.51924539289009 -7.765900480074933
rfingers 7.12501999999987
rthumb 12.616503149645244 -37.027384668573774
lclavicle -7.526312703619964E-16 -3.695199651535744E-16
lhumerus -39.33701936276741 0.20325244514882734 83.263741606066
lradius 37.96345438140774
lwrist 2.8225648222143036
lhand -19.69697940997388 1.650390351674119
lfingers 7.125019999999883
lthumb 6.539028292189884 31.170162122172435
rfemur -10.04046074698378 1.6716985028046492 13.494897807427556
rtibia 29.265450014974235
rfoot -0.27104881415254267 -3.22163479655577
rtoes 3.8371860138312743
lfemur 1.3074707287377247 -4.176419296004475 -20.785879064681048
ltibia 19.060765786760093
lfoot -18.087434684907088 4.073798422328161
ltoes -21.926874419458773
179
root 0 0 0 -2.222145408883115 -0.29617363594214274 0.8481522559423511
lowerback 10.148555810894907 -0.7991437501217713 -3.0261141138703325
upperback 0.30036383588281595 -1.3531308463091056 1.2703075321926456
thorax -5.325439779990933 -0.593212306648032 3.215254709217991
lowerneck -14.878195158097816 -2.5305118970350415 -1.6498393577472457
upperneck 17.539110819705726 -3.1892722415152255 0.9289191140785822
head 8.091706874759968 -1.5647500963819747 0.2306999023061586
rclavicle -1.8849398518176258E-16 -1.0316853385025482E-16
rhumerus -19.89173209175991 -7.5505218039467925 -67.62514792204257
rradius 59.838362660660046
rwrist -7.824476513615481
rhand -13.45057123810852 -8.227149371169734
rfingers 7.125019999999868
rthumb 12.682753547072409 -37.47799508972347
lclavicle -7.362142681029664E-16 -3.665940099384421E-16
lhumerus -39.380010510867365 0.18002739335403412 83.26914239464773
lradius 38.081423214662955
lwrist 2.8101964727863797
lhand -19.634744254602115 1.4547038885787895
lfingers 7.125019999999881
lthumb 6.598287695037204 30.968272514892213
rfemur -10.537417012619738 1.6938245864204997 13.855401854640565
rtibia 30.32570468681979
rfoot -0.172819462114707 -3.3382394773113413
rtoes 4.107479148899882
lfemur 0.2788430617871045 -3.830199935480507 -20.603384790088402
ltibia 21.29315012610348
lfoot -16.723531359203346 3.116131351716488
ltoes -20.31945704859269
180
root 0 0 0 -2.2662658440082835 -0.3089299514642243 0.8644941925044232
lowerback 10.168871144611959 -0.816784593071274 -3.0013648686319874
upperback 0.3193832148568276 -1.3747375732885687 1.298055717257113
thorax -5.312218311734786 -0.6019728044066476 3.232948436870041
lowerneck -15.031924108708516 -2.5386896558529655 -1.6970422649033838
upperneck 17.725196619087875 -3.18545296078241 0.8876873140267496
head 8.16650919763601 -1.5665620592733522 0.2204346590589353
rclavicle -1.8173670666032173E-16 -1.0081647201105685E-16
rhumerus -19.83632728168013 -7.486733817258344 -67.55864958387866
rradius 60.042524990213096
rwrist -7.894865332373855
rhand -13.42190843741078 -8.421186843372174
rfingers 7.125019999999866
rthumb 12.710091617259511 -37.66872149574412
lclavicle -7.317790705233644E-16 -3.650404107616221E-16
lhumerus -39.32240585070054 0.17585993460585006 83.26305127592896
lradius 38.00575060459813
lwrist 2.8359394814704992
lhand -19.695571252574904 1.6389509361491292
lfingers 7.125019999999882
lthumb 6.5411570948221875 31.15576196949774
rfemur -10.842289791667232 1.8181944688386746 14.48096288845956
rtibia 31.19286065338757
rfoot -0.3849537936155363 -3.494110486099492
rtoes 4.2700679012970815
lfemur -0.9961770304809461 -3.5354613986496726 -20.170469914289377
ltibia 23.303918261702904
lfoot -15.583181946195104 2.4501743098434643
ltoes -19.371549522125537
181
root 0 0 0 -2.296322159101672 -0.3554302492520267 0.8137488025760482
lowerback 10.181445692482656 -0.8077342563041596 -2.9175173344974024
upperback 0.3322461928655755 -1.3534199790583186 1.3215327798915117
thorax -5.302752108543984 -0.591571705650218 3.207420572172759
lowerneck -15.147973164982258 -2.549066257250516 -1.7264169126211353
upperneck 17.87439080756814 -3.189632447008449 0.8564530181664247
head 8.221981887093506 -1.571243068021169 0.2106661717399797
rclavicle -1.8202411021711365E-16 -9.901999822326704E-17
rhumerus -19.833918238227813 -7.48640159103492 -67.55486233960447
rradius 60.047342350525476
rwrist -7.897841056844279
rhand -13.42100272041252 -8.424378270580645
rfingers 7.125019999999866
rthumb 12.710699741965637 -37.67100303063135
lclavicle -7.2899779932456725E-16 -3.6086301415580485E-16
lhumerus -39.19480453591306 0.1702842429122698 83.25097379628133
lradius 37.82743034717055
lwrist 2.8913076636431
lhand -19.83085692184779 2.0522647225929376
lfingers 7.125019999999885
lthumb 6.412887341886687 31.576289743975565
rfemur -11.061390388431537 2.024952356918086 15.290655390528613
rtibia 31.84026668328142
rfoot -0.8617193641860452 -3.701301516569962
rtoes 4.320076705533257
lfemur -2.746560800369498 -3.195684627423525 -19.485377421800557
ltibia 25.691472941016205
lfoot -14.277754559230761 1.7866113739360978
ltoes -18.539221690264053
182
root 0 0 0 -2.3162383625064744 -0.4468733393309241 0.6819599761969335
lowerback 10.189553082528462 -0.7671366731976501 -2.75562512991169
upperback 0.3410425945135615 -1.2804468948587093 1.3435961777079029
thorax -5.295679928849091 -0.5579446186721081 3.129857438466227
lowerneck -15.240450709540461 -2.5642859602749546 -1.7416100956693905
upperneck 18.001950848640885 -3.204749057183887 0.8324128187825899
head 8.26564787441054 -1.5801271934399148 0.20030748085211753
rclavicle -1.8765712336338396E-16 -9.802075730699691E-17
rhumerus -19.892812548844006 -7.554282666218726 -67.62117008673665
rradius 59.837025427757524
rwrist -7.825358512178536
rhand -13.449350857447882 -8.225205406581368
rfingers 7.125019999999868
rthumb 12.683087909642083 -37.474807035025556
lclavicle -7.244102511639655E-16 -3.57191179551734E-16
lhumerus -39.02008304123201 0.162820998797856 83.23580951110203
lradius 37.58244532676309
lwrist 2.9665469575336436
lhand -20.015359248295837 2.6152655868861086
lfingers 7.125019999999889
lthumb 6.238126384229941 32.15006091953147
rfemur -11.070291611478272 2.3406491292806764 16.27933714540659
rtibia 31.975051243012913
rfoot -1.7126460416188682 -3.953172553818302
rtoes 4.17517293030058
lfemur -5.25167335252401 -2.7586226410277845 -18.451657389547535
ltibia 28.80875325196541
lfoot -12.594541887542938 1.0178265854848325
ltoes -17.638999697239022
183
root 0 0 0 -2.247478440160354 -1.0679411150446163 -0.35067751939138914
lowerback 10.174540885517116 -0.3582205202894648 -1.6882767843824076
upperback 0.30910952999495406 -0.6036873881205782 1.3557556035081852
thorax -5.325616846937439 -0.2517889737798995 2.4488115234159435
lowerneck -15.154918735068337 -2.6581786366091404 -1.6337225034433254
upperneck 17.93490705276169 -3.3735384799801684 0.8894177987257821
head 8.218601262420233 -1.6495213366956487 0.18445737918002506
rclavicle -2.0192737157094198E-16 -1.1417238621518205E-16
rhumerus -20.05038522528634 -7.728823486849845 -67.79419449641307
rradius 59.30910612538712
rwrist -7.627156536368097
rhand -13.522463677337504 -7.701436758451882
rfingers 7.1250199999998705
rthumb 12.613122484486233 -36.983228961676204
lclavicle -7.149076553942943E-16 -3.476715398327074E-16
lhumerus -38.824637158381854 0.1408008771393293 83.22019578545782
lradius 37.34097550852522
lwrist 3.055738842454561
lhand -20.21734665104161 3.219568498654489
lfingers 7.125019999999893
lthumb 6.047387462840208 32.762940737237734
rfemur -10.403921251225743 2.7220428944401736 17.385935504413354
rtibia 31.717093049939265
rfoot -2.6745985943363166 -4.048599710773189
rtoes 4.078205751081324
lfemur -11.34738346402354 -1.7368172881584745 -16.04435170473386
ltibia 36.021949532059594
lfoot -8.52935660620609 -0.8225573368819399
ltoes -15.077586553661074
